<?xml version="1.0" standalone="no"?>
<!DOCTYPE svg PUBLIC "-//W3C//DTD SVG 20010904//EN"
 "http://www.w3.org/TR/2001/REC-SVG-20010904/DTD/svg10.dtd">
<svg version="1.0" xmlns="http://www.w3.org/2000/svg"
 width="512.000000pt" height="512.000000pt" viewBox="0 0 512.000000 512.000000"
 preserveAspectRatio="xMidYMid meet">
<metadata>
Created by potrace 1.11, written by Peter Selinger 2001-2013
</metadata>
<g transform="translate(0.000000,512.000000) scale(0.100000,-0.100000)"
fill="#000000" stroke="none">
<path d="M560 5110 c-149 -20 -254 -73 -366 -185 -66 -65 -89 -96 -122 -165
-22 -47 -46 -110 -53 -140 -12 -45 -14 -410 -14 -2065 0 -1920 1 -2013 18
-2075 50 -174 181 -334 337 -408 47 -22 110 -46 140 -53 45 -12 410 -14 2065
-14 1920 0 2013 1 2075 18 174 50 334 181 408 337 22 47 46 110 53 140 12 45
14 410 14 2065 0 1920 -1 2013 -18 2075 -48 168 -180 332 -327 404 -158 77 46
70 -2170 72 -1092 1 -2010 -2 -2040 -6z m2157 -884 c250 -15 538 -117 768
-271 366 -245 614 -605 709 -1027 118 -525 -23 -1072 -381 -1481 -174 -199
-441 -379 -698 -470 -429 -153 -955 -110 -1355 110 -660 363 -997 1109 -834
1843 142 638 652 1138 1297 1271 104 21 287 38 367 32 25 -1 82 -5 127 -7z"/>
<path d="M2065 3340 c-160 -14 -303 -36 -448 -71 -107 -26 -133 -36 -161 -63
-76 -71 -63 -192 27 -246 41 -25 88 -25 179 0 217 59 547 87 827 70 398 -24
684 -92 971 -232 128 -62 149 -70 188 -65 57 6 91 32 121 90 42 84 9 156 -99
219 -226 132 -595 240 -960 283 -167 19 -498 27 -645 15z"/>
<path d="M2065 2764 c-153 -16 -387 -62 -466 -92 -103 -40 -105 -189 -3 -237
38 -18 40 -18 144 8 203 51 289 61 530 61 396 1 685 -64 1003 -226 136 -70
139 -71 179 -59 103 31 131 151 52 220 -54 48 -284 157 -434 205 -263 86 -451
116 -745 121 -121 1 -238 1 -260 -1z"/>
<path d="M2155 2220 c-142 -9 -254 -24 -389 -51 -146 -30 -176 -50 -176 -121
0 -42 23 -76 64 -93 27 -11 45 -11 122 5 237 49 492 68 683 51 249 -22 437
-75 640 -178 68 -35 132 -63 142 -63 54 0 99 50 99 109 0 48 -41 85 -168 149
-202 102 -454 172 -677 187 -180 12 -222 12 -340 5z"/>
</g>
</svg>
